HIERARCHY
ROOT root
{
	OFFSET 0.000000 0.000000 0.000000
	CHANNELS 6 Xposition Yposition Zposition Zrotation Yrotation Xrotation
	JOINT lhip
	{
		OFFSET 0.058581 -0.082280 -0.017664
		CHANNELS 3 Zrotation Yrotation Xrotation
		JOINT lknee
		{
			OFFSET 0.043451 -0.386469 0.008037
			CHANNELS 3 Zrotation Yrotation Xrotation
			JOINT lankle
			{
				OFFSET -0.014790 -0.426874 -0.037428
				CHANNELS 3 Zrotation Yrotation Xrotation
				JOINT ltoe
				{
					OFFSET 0.041054 -0.060286 0.122042
					CHANNELS 3 Zrotation Yrotation Xrotation
					End Site
					{
						OFFSET 0.000000 0.000000 0.000000
					}
				}
			}
		}
	}
	JOINT rhip
	{
		OFFSET -0.060310 -0.090513 -0.013543
		CHANNELS 3 Zrotation Yrotation Xrotation
		JOINT rknee
		{
			OFFSET -0.043257 -0.383688 -0.004843
			CHANNELS 3 Zrotation Yrotation Xrotation
			JOINT rankle
			{
				OFFSET 0.019056 -0.420046 -0.034562
				CHANNELS 3 Zrotation Yrotation Xrotation
				JOINT rtoe
				{
					OFFSET -0.034840 -0.062106 0.130323
					CHANNELS 3 Zrotation Yrotation Xrotation
					End Site
					{
						OFFSET 0.000000 0.000000 0.000000
					}
				}
			}
		}
	}
	JOINT lowerback
	{
		OFFSET 0.004439 0.124404 -0.038385
		CHANNELS 3 Zrotation Yrotation Xrotation
		JOINT upperback
		{
			OFFSET 0.004488 0.137956 0.026820
			CHANNELS 3 Zrotation Yrotation Xrotation
			JOINT chest
			{
				OFFSET -0.002265 0.056032 0.002855
				CHANNELS 3 Zrotation Yrotation Xrotation
				JOINT lowerneck
				{
					OFFSET -0.013390 0.211636 -0.033468
					CHANNELS 3 Zrotation Yrotation Xrotation
					JOINT upperneck
					{
						OFFSET 0.010113 0.088937 0.050410
						CHANNELS 3 Zrotation Yrotation Xrotation
						End Site
						{
							OFFSET 0.000000 0.000000 0.000000
						}
					}
				}
				JOINT lclavicle
				{
					OFFSET 0.071702 0.114000 -0.018898
					CHANNELS 3 Zrotation Yrotation Xrotation
					JOINT lshoulder
					{
						OFFSET 0.122921 0.045205 -0.019046
						CHANNELS 3 Zrotation Yrotation Xrotation
						JOINT lelbow
						{
							OFFSET 0.255332 -0.015649 -0.022946
							CHANNELS 3 Zrotation Yrotation Xrotation
							JOINT lwrist
							{
								OFFSET 0.265709 0.012698 -0.007375
								CHANNELS 3 Zrotation Yrotation Xrotation
								End Site
								{
									OFFSET 0.000000 0.000000 0.000000
								}
							}
						}
					}
				}
				JOINT rclavicle
				{
					OFFSET -0.082954 0.112472 -0.023707
					CHANNELS 3 Zrotation Yrotation Xrotation
					JOINT rshoulder
					{
						OFFSET -0.113228 0.046853 -0.008472
						CHANNELS 3 Zrotation Yrotation Xrotation
						JOINT relbow
						{
							OFFSET -0.260127 -0.014369 -0.031269
							CHANNELS 3 Zrotation Yrotation Xrotation
							JOINT rwrist
							{
								OFFSET -0.269108 0.006794 -0.006027
								CHANNELS 3 Zrotation Yrotation Xrotation
								End Site
								{
									OFFSET 0.000000 0.000000 0.000000
								}
							}
						}
					}
				}
			}
		}
	}
}
MOTION
Frames: 11
Frame Time: 0.033333
0.177513 0.803531 0.991719 -97.330421 -2.640428 77.404874 12.322079 -6.301947 -45.171301 -3.567419 17.209608 72.820704 3.474004 9.229752 -25.032080 0.000000 -0.000000 0.000000 -0.269315 -3.834830 8.525807 2.043080 6.251510 13.050199 1.988272 -2.954393 -14.517529 0.000000 -0.000000 0.000000 -2.623381 11.449905 15.927444 2.970295 -4.061600 8.067908 0.176560 0.974117 5.584635 2.458622 2.210102 12.158645 4.884541 0.030003 17.630232 -23.095007 5.093461 4.909705 -65.680754 -2.469554 3.931062 13.130576 -33.587304 8.856475 -0.445057 -1.454033 -10.341475 22.146757 -1.021790 4.572410 61.769745 8.749817 7.615333 -20.181058 35.754388 -1.191337 8.746106 1.868501 -11.735211 
0.162934 0.803513 0.991018 -97.593155 -2.872532 77.315984 12.319647 -5.927936 -45.444305 -4.586804 16.733258 66.941088 3.077683 8.559814 -23.683793 0.000000 -0.000000 0.000000 -0.709869 -4.015205 9.638772 1.979816 6.661222 13.177826 1.992068 -2.786609 -15.539199 0.000000 -0.000000 0.000000 -2.689773 11.839649 15.986949 2.718479 -3.939018 8.417587 0.058812 1.122175 5.589309 2.630698 2.716210 11.782312 4.826663 -0.185192 17.705292 -23.061662 5.112911 4.381344 -65.426338 -2.055185 4.037278 13.163863 -33.363537 8.589122 -0.471457 -1.307601 -10.207956 22.237060 -0.534811 4.373241 61.894692 8.976606 8.108617 -19.719962 36.369832 -0.815695 9.796510 1.244154 -11.689288 
0.147860 0.803001 0.989932 -97.829919 -2.929495 77.318990 12.111276 -5.903427 -45.174986 -5.890317 15.469311 62.336926 2.667701 7.787748 -21.700898 0.000000 -0.000000 0.000000 -0.999586 -4.336432 10.291941 1.874356 6.737822 14.091482 1.849444 -2.421360 -16.715880 0.000000 -0.000000 0.000000 -2.650318 12.006745 16.112653 2.446482 -3.758008 8.450855 0.010107 1.384955 5.410505 2.580376 2.985970 12.108441 4.640722 -0.127076 17.731121 -23.166610 4.984284 4.277829 -65.283549 -1.588550 3.870285 13.477844 -33.114583 8.319900 -0.513598 -1.586818 -9.991355 22.268598 -0.150683 4.577003 61.898690 9.395412 7.992650 -18.851381 37.030466 0.148181 10.252415 2.109240 -11.207577 
0.131073 0.802395 0.988064 -98.057478 -2.928335 77.446225 11.960837 -6.070238 -44.563229 -6.758492 14.475686 59.344449 2.474977 6.842681 -19.151275 0.000000 -0.000000 0.000000 -1.266678 -4.474982 11.240199 1.837171 6.833347 14.342110 1.338199 -2.389586 -17.625626 0.000000 -0.000000 0.000000 -2.763086 12.247265 15.700700 2.373901 -3.578917 8.743630 -0.076279 1.566921 5.192908 2.587997 3.247498 12.426723 4.649875 -0.467097 17.986483 -23.288980 5.128506 4.416423 -64.933227 -1.195029 3.818980 13.444983 -33.232848 8.058467 -1.067344 -1.457913 -10.248796 22.486053 0.253626 5.022258 61.823357 9.467547 8.184385 -18.451518 37.752590 0.879702 10.665607 2.271498 -11.091191 
0.114087 0.801339 0.986064 -98.071934 -2.732846 77.820990 11.724930 -6.422919 -43.995932 -7.561773 13.493900 57.922975 1.870387 6.350187 -17.850737 0.000000 -0.000000 0.000000 -1.239520 -4.387030 12.146464 1.723598 6.831407 14.263320 1.146075 -2.704724 -18.421850 0.000000 -0.000000 0.000000 -2.883794 12.381860 15.039861 2.415853 -3.528038 9.100835 -0.089109 1.669651 5.310272 2.817027 3.414125 11.938685 4.344573 -0.639457 17.996355 -23.398531 5.413443 3.757003 -64.932137 -0.966589 4.050923 13.493435 -32.722193 8.025665 -1.055207 -1.515547 -9.899662 22.652080 0.275441 4.382387 61.685637 9.522100 8.928041 -17.659191 38.447698 1.952881 10.847745 2.360451 -11.276934 
0.096557 0.799621 0.983785 -98.286596 -2.493311 78.607090 11.476905 -6.496058 -43.579094 -7.635438 12.964786 57.551700 2.239989 6.143225 -16.923916 0.000000 -0.000000 0.000000 -1.328439 -4.427600 12.423458 1.785290 7.102776 14.572083 1.072952 -2.783390 -19.192223 0.000000 -0.000000 0.000000 -2.983316 12.499450 14.267830 2.372747 -3.358476 8.857913 -0.169779 1.793807 5.020235 2.740171 3.298936 12.189531 4.429047 -0.817038 18.456402 -23.297400 5.633907 4.284805 -64.992296 -0.708314 3.719339 13.511516 -32.706057 8.197280 -0.925237 -1.424048 -10.032786 22.674089 0.352835 4.914269 61.723485 9.611442 8.827479 -17.066809 39.152554 3.127722 11.157200 2.400870 -11.481347 
0.078472 0.797243 0.982355 -98.421221 -2.311508 79.509392 10.940368 -6.385902 -43.195436 -7.356451 13.166763 58.152433 4.331894 8.039794 -18.875395 0.000000 -0.000000 0.000000 -1.558713 -4.682421 12.636651 1.908620 7.710827 14.766218 1.185622 -3.293111 -19.503391 0.000000 -0.000000 0.000000 -3.187800 12.613376 13.721041 2.231185 -3.159303 8.034019 -0.194803 1.837272 5.361599 2.670657 2.921049 11.665787 4.475807 -0.589020 18.733870 -23.124692 5.834807 4.367163 -64.916677 -0.535994 3.520992 13.164431 -32.475246 8.521377 0.174081 -1.466309 -9.864473 22.645691 0.386307 4.832865 61.999897 9.499359 9.229250 -16.839679 39.583490 3.385259 11.164860 2.313617 -11.473402 
0.061267 0.794174 0.981824 -98.464561 -2.137369 80.746031 11.024319 -6.427666 -44.409626 -7.027618 13.865915 60.204147 5.297831 7.772292 -19.645096 0.000000 -0.000000 0.000000 -1.711230 -4.478056 12.330612 1.810263 7.451454 15.087818 1.238355 -3.413629 -18.935263 0.000000 -0.000000 0.000000 -3.395744 12.722446 13.440548 2.078633 -3.033444 6.998788 -0.255676 1.891350 5.568300 2.515238 2.824907 10.943729 4.531802 -0.370126 18.447309 -23.142016 5.898309 4.297228 -64.773934 -0.459883 3.436758 13.267639 -32.093095 8.457926 -0.198849 -1.449247 -9.564377 22.476325 0.277504 4.573721 62.504998 9.248900 9.643092 -17.172064 39.936457 3.414831 12.120003 2.451913 -11.862269 
0.044292 0.790610 0.982835 -98.492666 -2.342340 81.944201 10.628329 -6.732039 -44.794828 -6.814625 14.267674 60.780027 5.391347 8.060331 -20.569792 0.000000 -0.000000 0.000000 -2.173425 -4.164113 12.047315 1.564813 7.356041 15.303053 2.091409 -3.254334 -18.052489 0.000000 -0.000000 0.000000 -3.869694 13.112756 13.351989 1.732990 -2.853001 6.159053 -0.430567 1.941766 5.543735 2.778212 2.596550 10.485421 4.588570 -0.855925 18.118675 -22.882121 5.714036 4.420222 -64.436302 -0.854889 3.384383 13.080399 -31.320142 8.347114 0.127478 -1.504459 -9.562233 22.573216 0.293439 4.733309 62.734094 9.230967 9.965959 -17.336662 39.903330 3.087241 8.600925 2.376494 -11.669134 
0.026187 0.786854 0.986665 -98.781711 -2.449808 82.848513 9.571459 -6.714667 -43.946314 -7.097890 13.914635 60.772990 6.618131 9.051113 -22.812232 0.000000 -0.000000 0.000000 -2.570423 -4.154422 11.991346 1.239055 7.692464 15.504232 2.833853 -3.190004 -16.001312 0.000000 -0.000000 0.000000 -4.319758 13.729621 13.041128 1.399977 -2.447935 5.990756 -0.560469 2.151550 5.577259 2.972120 2.209428 9.875354 4.988043 -0.957536 18.021173 -22.676668 4.969956 4.304655 -64.211512 -1.393478 3.448735 13.391091 -30.373575 7.880822 -0.002765 -1.370394 -9.534364 22.273731 0.525469 4.653409 63.298141 8.748839 10.004746 -18.078684 39.546303 2.524033 11.194249 2.428481 -12.104454 
0.007064 0.783134 0.993715 -98.655891 -2.422468 83.579296 8.737277 -7.155269 -42.599869 -7.274011 13.716770 60.067207 6.860614 9.876136 -24.082088 0.000000 -0.000000 0.000000 -2.882073 -3.914306 12.446580 0.944876 7.313527 15.170657 3.666226 -3.349319 -12.480934 0.000000 -0.000000 0.000000 -4.731850 13.883125 13.164441 0.890904 -2.312424 5.597107 -0.704427 2.300380 5.281510 3.043194 1.486237 9.966496 5.809089 -0.850921 17.571448 -22.723554 4.545662 4.674209 -63.797356 -1.753557 3.093319 14.167907 -30.502856 6.582340 0.233751 -1.177590 -9.328454 22.156815 0.772025 4.868906 63.587499 8.004025 10.015391 -18.358019 39.633677 2.366556 10.731257 2.119329 -11.678972 
